HIERARCHY
ROOT Model
{
	OFFSET 0 0 0
	CHANNELS 6 Xposition Yposition Zposition Zrotation Xrotation Yrotation
	JOINT Model1
	{
		OFFSET 0 -2.25479 2.99384
		CHANNELS 3 Zrotation Xrotation Yrotation
		JOINT Model2
		{
			OFFSET 12.111 0 0
			CHANNELS 3 Zrotation Xrotation Yrotation
			JOINT Model3
			{
				OFFSET 11.5502 0 0
				CHANNELS 3 Zrotation Xrotation Yrotation
				JOINT Model4
				{
					OFFSET 11.781 0 0
					CHANNELS 3 Zrotation Xrotation Yrotation
					JOINT Model5
					{
						OFFSET 20.0601 0 0
						CHANNELS 3 Zrotation Xrotation Yrotation
						JOINT Model6
						{
							OFFSET 11.1962 0 0
							CHANNELS 3 Zrotation Xrotation Yrotation
							End Site
							{
								OFFSET 0 0 0
							}
						}
					}
					JOINT Model7
					{
						OFFSET 10.8223 0.417534 3.51114
						CHANNELS 3 Zrotation Xrotation Yrotation
						JOINT Model8
						{
							OFFSET -6.07944 0 0
							CHANNELS 3 Zrotation Xrotation Yrotation
							JOINT Model9
							{
								OFFSET -0.277405 10.39 -0.051239
								CHANNELS 3 Zrotation Xrotation Yrotation
								JOINT Model10
								{
									OFFSET -3.43909 -0.282043 1.86679
									CHANNELS 3 Zrotation Xrotation Yrotation
									JOINT Model11
									{
										OFFSET 13.0269 0 0
										CHANNELS 3 Zrotation Xrotation Yrotation
										JOINT Model12
										{
											OFFSET 10.8866 0 0
											CHANNELS 3 Zrotation Xrotation Yrotation
											JOINT Model13
											{
												OFFSET 16.7317 0 0
												CHANNELS 3 Zrotation Xrotation Yrotation
												JOINT Model14
												{
													OFFSET 11.8292 0 0
													CHANNELS 3 Zrotation Xrotation Yrotation
													JOINT Model15
													{
														OFFSET 4.82751 -3.73566 -0.836517
														CHANNELS 3 Zrotation Xrotation Yrotation
														JOINT Model16
														{
															OFFSET 3.75311 -0.0582886 -0.0186462
															CHANNELS 3 Zrotation Xrotation Yrotation
															JOINT Model17
															{
																OFFSET 2.88689 0.0192337 0.014801
																CHANNELS 3 Zrotation Xrotation Yrotation
																End Site
																{
																	OFFSET 0 0 0
																}
															}
														}
													}
													JOINT Model18
													{
														OFFSET 9.72197 -3.06458 0.23877
														CHANNELS 3 Zrotation Xrotation Yrotation
														JOINT Model19
														{
															OFFSET 4.61131 0 0
															CHANNELS 3 Zrotation Xrotation Yrotation
															JOINT Model20
															{
																OFFSET 2.8969 -7.62939e-006 0
																CHANNELS 3 Zrotation Xrotation Yrotation
																End Site
																{
																	OFFSET 0 0 0
																}
															}
														}
													}
													JOINT Model21
													{
														OFFSET 9.54431 -0.745064 0.588928
														CHANNELS 3 Zrotation Xrotation Yrotation
														JOINT Model22
														{
															OFFSET 5.33978 0 0
															CHANNELS 3 Zrotation Xrotation Yrotation
															JOINT Model23
															{
																OFFSET 3.03619 7.62939e-006 0
																CHANNELS 3 Zrotation Xrotation Yrotation
																End Site
																{
																	OFFSET 0 0 0
																}
															}
														}
													}
													JOINT Model24
													{
														OFFSET 9.47758 1.51286 0.485107
														CHANNELS 3 Zrotation Xrotation Yrotation
														JOINT Model25
														{
															OFFSET 4.96136 7.62939e-006 0
															CHANNELS 3 Zrotation Xrotation Yrotation
															JOINT Model26
															{
																OFFSET 2.51965 0 0
																CHANNELS 3 Zrotation Xrotation Yrotation
																End Site
																{
																	OFFSET 0 0 0
																}
															}
														}
													}
													JOINT Model27
													{
														OFFSET 9.34247 3.34117 -0.239288
														CHANNELS 3 Zrotation Xrotation Yrotation
														JOINT Model28
														{
															OFFSET 3.28259 2.28882e-005 0
															CHANNELS 3 Zrotation Xrotation Yrotation
															JOINT Model29
															{
																OFFSET 2.1292 0 0
																CHANNELS 3 Zrotation Xrotation Yrotation
																End Site
																{
																	OFFSET 0 0 0
																}
															}
														}
													}
												}
											}
										}
									}
								}
							}
						}
					}
					JOINT Model30
					{
						OFFSET 10.8223 0.4179 -3.51108
						CHANNELS 3 Zrotation Xrotation Yrotation
						JOINT Model31
						{
							OFFSET 6.07944 0 0
							CHANNELS 3 Zrotation Xrotation Yrotation
							JOINT Model32
							{
								OFFSET 0.277405 -10.39 0.051239
								CHANNELS 3 Zrotation Xrotation Yrotation
								JOINT Model33
								{
									OFFSET 3.43909 0.282043 -1.86679
									CHANNELS 3 Zrotation Xrotation Yrotation
									JOINT Model34
									{
										OFFSET -13.0269 0 0
										CHANNELS 3 Zrotation Xrotation Yrotation
										JOINT Model35
										{
											OFFSET -10.8866 0 0
											CHANNELS 3 Zrotation Xrotation Yrotation
											JOINT Model36
											{
												OFFSET -16.7317 0 0
												CHANNELS 3 Zrotation Xrotation Yrotation
												JOINT Model37
												{
													OFFSET -11.8292 0 0
													CHANNELS 3 Zrotation Xrotation Yrotation
													JOINT Model38
													{
														OFFSET -4.82751 3.73566 0.836517
														CHANNELS 3 Zrotation Xrotation Yrotation
														JOINT Model39
														{
															OFFSET -3.75311 0.0582886 0.0186462
															CHANNELS 3 Zrotation Xrotation Yrotation
															JOINT Model40
															{
																OFFSET -2.88687 -0.0192337 -0.014801
																CHANNELS 3 Zrotation Xrotation Yrotation
																End Site
																{
																	OFFSET 0 0 0
																}
															}
														}
													}
													JOINT Model41
													{
														OFFSET -9.72198 3.06459 -0.23877
														CHANNELS 3 Zrotation Xrotation Yrotation
														JOINT Model42
														{
															OFFSET -4.6113 0 0
															CHANNELS 3 Zrotation Xrotation Yrotation
															JOINT Model43
															{
																OFFSET -2.89691 0 0
																CHANNELS 3 Zrotation Xrotation Yrotation
																End Site
																{
																	OFFSET 0 0 0
																}
															}
														}
													}
													JOINT Model44
													{
														OFFSET -9.54431 0.745064 -0.588928
														CHANNELS 3 Zrotation Xrotation Yrotation
														JOINT Model45
														{
															OFFSET -5.33978 0 0
															CHANNELS 3 Zrotation Xrotation Yrotation
															JOINT Model46
															{
																OFFSET -3.03619 -1.52588e-005 0
																CHANNELS 3 Zrotation Xrotation Yrotation
																End Site
																{
																	OFFSET 0 0 0
																}
															}
														}
													}
													JOINT Model47
													{
														OFFSET -9.4776 -1.51286 -0.485107
														CHANNELS 3 Zrotation Xrotation Yrotation
														JOINT Model48
														{
															OFFSET -4.96136 -1.52588e-005 0
															CHANNELS 3 Zrotation Xrotation Yrotation
															JOINT Model49
															{
																OFFSET -2.51965 0 0
																CHANNELS 3 Zrotation Xrotation Yrotation
																End Site
																{
																	OFFSET 0 0 0
																}
															}
														}
													}
													JOINT Model50
													{
														OFFSET -9.34247 -3.34118 0.239288
														CHANNELS 3 Zrotation Xrotation Yrotation
														JOINT Model51
														{
															OFFSET -3.28259 -2.28882e-005 0
															CHANNELS 3 Zrotation Xrotation Yrotation
															JOINT Model52
															{
																OFFSET -2.12921 0 0
																CHANNELS 3 Zrotation Xrotation Yrotation
																End Site
																{
																	OFFSET 0 0 0
																}
															}
														}
													}
												}
											}
										}
									}
								}
							}
						}
					}
				}
			}
		}
	}
	JOINT Model53
	{
		OFFSET 4.38025 -2.14632 -1.11517
		CHANNELS 3 Zrotation Xrotation Yrotation
		JOINT Model54
		{
			OFFSET 0 0 4.94998
			CHANNELS 3 Zrotation Xrotation Yrotation
			JOINT Model55
			{
				OFFSET 18.5642 0 0
				CHANNELS 3 Zrotation Xrotation Yrotation
				JOINT Model56
				{
					OFFSET 21.2884 0 0
					CHANNELS 3 Zrotation Xrotation Yrotation
					JOINT Model57
					{
						OFFSET 30.261 0 0
						CHANNELS 3 Zrotation Xrotation Yrotation
						JOINT Model58
						{
							OFFSET 11.7259 0 0
							CHANNELS 3 Zrotation Xrotation Yrotation
							JOINT Model59
							{
								OFFSET 10.682 0 0
								CHANNELS 3 Zrotation Xrotation Yrotation
								End Site
								{
									OFFSET 0 0 0
								}
							}
						}
					}
				}
			}
		}
	}
	JOINT Model60
	{
		OFFSET -4.38025 -2.14632 -1.11517
		CHANNELS 3 Zrotation Xrotation Yrotation
		JOINT Model61
		{
			OFFSET 0 0 -4.94998
			CHANNELS 3 Zrotation Xrotation Yrotation
			JOINT Model62
			{
				OFFSET -18.5642 0 0
				CHANNELS 3 Zrotation Xrotation Yrotation
				JOINT Model63
				{
					OFFSET -21.2884 0 0
					CHANNELS 3 Zrotation Xrotation Yrotation
					JOINT Model64
					{
						OFFSET -30.261 0 0
						CHANNELS 3 Zrotation Xrotation Yrotation
						JOINT Model65
						{
							OFFSET -11.7259 0 0
							CHANNELS 3 Zrotation Xrotation Yrotation
							JOINT Model66
							{
								OFFSET -10.682 0 0
								CHANNELS 3 Zrotation Xrotation Yrotation
								End Site
								{
									OFFSET 0 0 0
								}
							}
						}
					}
				}
			}
		}
	}
}
MOTION
Frames: 5
Frame Time: 0.033333
-662.416 173.729 -745.146 93.2969 -50.7569 93.1171 -180 4.29621e-031 -90 0.44298 0.216686 -0.164589 0.886586 0.431655 -0.330852 0.886586 0.432092 -0.330859 4.06743 0.604802 1.10004 11.6786 0.779258 -0.487277 120.092 75.5343 58.4939 14.2495 -1.07371 -2.25084 -167.277 84.4999 48.8109 163.785 -10.3646 -29.2484 3.77942e-006 13.1462 3.0525e-005 0.033049 -0.35273 1.96768 1.09227e-007 -0.465734 -5.97298e-008 -0.837798 -0.00850119 1.1627 -72.0648 39.0385 39.3397 33.3638 2.10362 14.835 0.588947 0.308273 6.35287 -99.6409 81.413 100.35 -0.0181409 2.77662e-005 -0.117315 -0.124139 0.0024111 -0.799296 -79.8382 79.5773 80.5374 -0.000225774 -0.000220935 2.21547e-005 -0.000956223 0.000122878 -2.73745e-005 -66.7416 80.4058 67.2171 -0.000437131 1.59332e-005 -2.736e-005 -0.000136602 -0.000109308 -5.46948e-005 -6.42159 81.2158 8.01779 -0.000218568 1.68873e-005 0.000212101 0.000901582 -0.00018483 -0.000218619 -59.9282 75.5373 58.5147 15.1392 3.45757 -1.59795 -167.277 84.4999 48.8109 166.301 -18.6648 -20.2372 7.11121e-006 -0.301346 2.91029e-005 -1.55853 9.60077 -0.115063 -5.74165e-006 14.4288 2.4819e-006 -0.915011 0.00857093 -1.07335 -72.0648 39.0385 39.3397 33.3638 2.10361 14.835 0.588946 0.308273 6.35287 -99.6409 81.413 100.35 -0.0181409 3.0085e-005 -0.117315 -0.124139 0.00241114 -0.799296 -79.8382 79.5773 80.5374 -0.000260644 -0.000218558 2.36004e-005 -0.000956224 0.000123007 -2.72801e-005 -66.7416 80.4058 67.2171 -0.000437129 1.48884e-005 -2.72901e-005 -0.0001366 -0.000109273 -5.46e-005 -6.42159 81.2158 8.01779 -0.00021856 1.95795e-005 0.000212327 0.000901591 -0.000191244 -0.000218526 0.000811311 0.56661 89.91 -12.6951 -3.54446 -9.3883 3.84756e-007 1.03434 -9.0045e-010 36.11 -1.97008 -2.17727 -8.55586e-008 -3.02553 -7.41057e-008 -70.649 -7.73491 2.92981 -35.4947 4.9784e-007 1.20243e-007 -180 -0.566579 -90.09 -12.6125 -6.35151 -10.1186 -9.54981e-007 -2.68746 -3.55002e-008 35.5319 -2.33992 -1.9468 3.07175e-007 -3.57918 -2.21688e-007 -69.321 -7.86915 3.15837 -35.4947 9.32951e-008 4.45416e-007 
-662.402 173.74 -745.164 93.234 -50.7662 93.0831 -180 4.29621e-031 -90 0.419053 0.212754 -0.145996 0.838651 0.423997 -0.293546 0.838651 0.424434 -0.293553 3.69791 0.616263 1.08138 12.5406 0.779935 -0.654433 120.092 75.5343 58.4939 13.9842 -1.20901 -2.23548 -167.277 84.4999 48.8109 163.611 -10.0026 -29.2239 3.5415e-006 13.5803 3.058e-005 0.032207 -0.510548 1.64746 1.0898e-007 -0.702322 -5.97324e-008 -1.1901 -0.0144701 1.39316 -72.0648 39.0385 39.3397 33.3638 2.10362 14.835 0.588947 0.308273 6.35287 -99.6409 81.413 100.35 -0.0181409 2.77662e-005 -0.117315 -0.124139 0.0024111 -0.799296 -79.8382 79.5773 80.5374 -0.000225774 -0.000220935 2.21547e-005 -0.000956223 0.000122878 -2.73745e-005 -66.7416 80.4058 67.2171 -0.000437131 1.59332e-005 -2.736e-005 -0.000136602 -0.000109308 -5.46948e-005 -6.42159 81.2158 8.01779 -0.000218568 1.68873e-005 0.000212101 0.000901582 -0.00018483 -0.000218619 -59.9282 75.5373 58.5147 15.2356 3.3693 -1.63155 -167.277 84.4999 48.8109 166.325 -18.6591 -20.175 7.11095e-006 -0.300828 2.91029e-005 -1.55295 9.745 -0.117826 -5.75134e-006 14.6453 2.48433e-006 -0.662871 0.00675107 -1.16703 -72.0648 39.0385 39.3397 33.3638 2.10361 14.835 0.588946 0.308273 6.35287 -99.6409 81.413 100.35 -0.0181409 3.0085e-005 -0.117315 -0.124139 0.00241114 -0.799296 -79.8382 79.5773 80.5374 -0.000260644 -0.000218558 2.36004e-005 -0.000956224 0.000123007 -2.72801e-005 -66.7416 80.4058 67.2171 -0.000437129 1.48884e-005 -2.72901e-005 -0.0001366 -0.000109273 -5.46e-005 -6.42159 81.2158 8.01779 -0.00021856 1.95795e-005 0.000212327 0.000901591 -0.000191244 -0.000218526 0.000811311 0.56661 89.91 -12.7135 -3.35266 -9.26191 3.84759e-007 1.23507 -9.00513e-010 36.103 -2.14131 -2.15338 -8.58915e-008 -3.28251 -7.4124e-008 -70.6032 -7.8207 2.97899 -35.4947 4.92639e-007 1.26707e-007 -180 -0.566579 -90.09 -12.4513 -5.26658 -9.46267 -9.54226e-007 -1.46944 -3.54728e-008 35.4749 -3.18973 -1.70697 3.02226e-007 -4.8539 -2.22052e-007 -69.1789 -8.32777 3.41675 -35.4947 1.20159e-007 4.78687e-007 
-662.369 173.734 -745.147 93.2773 -50.7991 93.0815 -180 4.29621e-031 -90 0.394317 0.216867 -0.146683 0.789193 0.432282 -0.294859 0.789193 0.432719 -0.294865 3.73442 0.675891 1.21146 12.8193 0.85516 -0.785167 120.092 75.5343 58.4939 13.8888 -1.19943 -2.2193 -167.277 84.4999 48.8109 163.662 -9.69629 -29.0819 3.29986e-006 14.0196 3.06376e-005 0.0306347 -0.700934 1.33944 1.08682e-007 -0.987757 -5.97367e-008 -1.49283 -0.0216755 1.66362 -72.0648 39.0385 39.3397 33.3638 2.10362 14.835 0.588947 0.308273 6.35287 -99.6409 81.413 100.35 -0.0181409 2.77662e-005 -0.117315 -0.124139 0.0024111 -0.799296 -79.8382 79.5773 80.5374 -0.000225774 -0.000220935 2.21547e-005 -0.000956223 0.000122878 -2.73745e-005 -66.7416 80.4058 67.2171 -0.000437131 1.59332e-005 -2.736e-005 -0.000136602 -0.000109308 -5.46948e-005 -6.42159 81.2158 8.01779 -0.000218568 1.68873e-005 0.000212101 0.000901582 -0.00018483 -0.000218619 -59.9282 75.5373 58.5147 15.098 3.12785 -1.64712 -167.277 84.4999 48.8109 166.075 -18.6213 -20.3183 7.11073e-006 -0.300398 2.91029e-005 -1.54892 9.84973 -0.119843 -5.75839e-006 14.8024 2.48613e-006 -0.566664 0.00588195 -1.1894 -72.0648 39.0385 39.3397 33.3638 2.10361 14.835 0.588946 0.308273 6.35287 -99.6409 81.413 100.35 -0.0181409 3.0085e-005 -0.117315 -0.124139 0.00241114 -0.799296 -79.8382 79.5773 80.5374 -0.000260644 -0.000218558 2.36004e-005 -0.000956224 0.000123007 -2.72801e-005 -66.7416 80.4058 67.2171 -0.000437129 1.48884e-005 -2.72901e-005 -0.0001366 -0.000109273 -5.46e-005 -6.42159 81.2158 8.01779 -0.00021856 1.95795e-005 0.000212327 0.000901591 -0.000191244 -0.000218526 0.000811311 0.56661 89.91 -12.6027 -3.19058 -9.13983 3.84762e-007 1.41256 -9.00577e-010 36.0749 -2.25894 -2.10251 -8.61201e-008 -3.45892 -7.41374e-008 -70.6161 -7.8875 3.01151 -35.4947 4.82591e-007 1.39548e-007 -180 -0.566579 -90.09 -12.4106 -5.14566 -9.40361 -9.54134e-007 -1.32118 -3.54706e-008 35.4988 -3.27428 -1.74534 3.01732e-007 -4.98094 -2.22094e-007 -69.194 -8.41186 3.45904 -35.4947 1.50761e-007 6.05994e-007 
-662.346 173.707 -745.106 93.295 -50.8177 93.0579 -180 4.29621e-031 -90 0.343956 0.228639 -0.158289 0.688547 0.455886 -0.317952 0.688547 0.456323 -0.317958 3.99327 0.685134 1.44417 12.8755 0.901583 -0.839165 120.092 75.5343 58.4939 13.8789 -1.16354 -2.21112 -167.277 84.4999 48.8109 163.638 -9.44905 -29.0477 3.1121e-006 14.3598 3.06836e-005 0.0320505 -0.790541 1.31166 1.08542e-007 -1.12218 -5.97393e-008 -1.66771 -0.0256372 1.76131 -72.0648 39.0385 39.3397 33.3638 2.10362 14.835 0.588947 0.308273 6.35287 -99.6409 81.413 100.35 -0.0181409 2.77662e-005 -0.117315 -0.124139 0.0024111 -0.799296 -79.8382 79.5773 80.5374 -0.000225774 -0.000220935 2.21547e-005 -0.000956223 0.000122878 -2.73745e-005 -66.7416 80.4058 67.2171 -0.000437131 1.59332e-005 -2.736e-005 -0.000136602 -0.000109308 -5.46948e-005 -6.42159 81.2158 8.01779 -0.000218568 1.68873e-005 0.000212101 0.000901582 -0.00018483 -0.000218619 -59.9282 75.5373 58.5147 14.5291 2.57481 -1.63841 -167.277 84.4999 48.8109 165.348 -18.5357 -20.8914 7.111e-006 -0.300923 2.91029e-005 -1.54297 10.0059 -0.122853 -5.76892e-006 15.0369 2.48884e-006 -0.68926 0.00632044 -1.05076 -72.0648 39.0385 39.3397 33.3638 2.10361 14.835 0.588946 0.308273 6.35287 -99.6409 81.413 100.35 -0.0181409 3.0085e-005 -0.117315 -0.124139 0.00241114 -0.799296 -79.8382 79.5773 80.5374 -0.000260644 -0.000218558 2.36004e-005 -0.000956224 0.000123007 -2.72801e-005 -66.7416 80.4058 67.2171 -0.000437129 1.48884e-005 -2.72901e-005 -0.0001366 -0.000109273 -5.46e-005 -6.42159 81.2158 8.01779 -0.00021856 1.95795e-005 0.000212327 0.000901591 -0.000191244 -0.000218526 0.000811311 0.56661 89.91 -12.5654 -3.16255 -9.12021 3.84762e-007 1.44681 -9.00591e-010 36.1278 -2.26486 -2.06286 -8.61316e-008 -3.46781 -7.41381e-008 -70.69 -7.9026 3.01031 -35.4947 4.681e-007 1.58234e-007 -180 -0.566579 -90.09 -12.5082 -5.55361 -9.57414 -9.54452e-007 -1.83513 -3.54794e-008 35.6133 -2.943 -2.07102 3.0366e-007 -4.48487 -2.21935e-007 -69.3223 -8.33157 3.40061 -35.4947 1.84762e-007 8.20621e-007 
-662.338 173.705 -745.068 93.3125 -50.8266 93.0632 -180 4.29621e-031 -90 0.324885 0.227353 -0.182707 0.650496 0.453227 -0.366704 0.650496 0.453665 -0.366709 3.86448 0.636768 1.87602 13.2945 0.920021 -1.09959 120.092 75.5343 58.4939 14.0653 -1.36419 -2.27633 -167.277 84.4999 48.8109 163.366 -9.2789 -28.9929 3.05697e-006 14.4595 3.06973e-005 0.0344195 -0.757161 1.44298 1.08594e-007 -1.07221 -5.97383e-008 -1.91292 -0.0275537 1.65031 -72.0648 39.0385 39.3397 33.3638 2.10362 14.835 0.588947 0.308273 6.35287 -99.6409 81.413 100.35 -0.0181409 2.77662e-005 -0.117315 -0.124139 0.0024111 -0.799296 -79.8382 79.5773 80.5374 -0.000225774 -0.000220935 2.21547e-005 -0.000956223 0.000122878 -2.73745e-005 -66.7416 80.4058 67.2171 -0.000437131 1.59332e-005 -2.736e-005 -0.000136602 -0.000109308 -5.46948e-005 -6.42159 81.2158 8.01779 -0.000218568 1.68873e-005 0.000212101 0.000901582 -0.00018483 -0.000218619 -59.9282 75.5373 58.5147 14.0913 2.296 -1.60864 -167.277 84.4999 48.8109 164.933 -18.4913 -21.2604 7.1114e-006 -0.301709 2.91029e-005 -1.54217 10.0283 -0.123259 -5.77044e-006 15.0704 2.48923e-006 -0.941136 0.00723515 -0.880928 -72.0648 39.0385 39.3397 33.3638 2.10361 14.835 0.588946 0.308273 6.35287 -99.6409 81.413 100.35 -0.0181409 3.0085e-005 -0.117315 -0.124139 0.00241114 -0.799296 -79.8382 79.5773 80.5374 -0.000260644 -0.000218558 2.36004e-005 -0.000956224 0.000123007 -2.72801e-005 -66.7416 80.4058 67.2171 -0.000437129 1.48884e-005 -2.72901e-005 -0.0001366 -0.000109273 -5.46e-005 -6.42159 81.2158 8.01779 -0.00021856 1.95795e-005 0.000212327 0.000901591 -0.000191244 -0.000218526 0.000811311 0.56661 89.91 -12.5257 -3.19807 -9.16648 3.84762e-007 1.43029 -9.00584e-010 36.119 -2.26088 -1.99643 -8.61237e-008 -3.46167 -7.41376e-008 -70.7077 -7.88425 2.99885 -35.4947 4.49569e-007 1.82235e-007 -180 -0.566579 -90.09 -12.5077 -5.71442 -9.6685 -9.54563e-007 -2.01378 -3.54831e-008 35.6281 -2.81023 -2.10176 3.04434e-007 -4.28568 -2.21876e-007 -69.3774 -8.25404 3.35304 -35.4947 2.21821e-007 1.11585e-006 
